<?xml version="1.0" encoding="utf-8"?>
<!-- Generator: Adobe Illustrator 28.0.0, SVG Export Plug-In . SVG Version: 6.00 Build 0)  -->
<svg version="1.1" id="Capa_1" xmlns="http://www.w3.org/2000/svg" xmlns:xlink="http://www.w3.org/1999/xlink" x="0px" y="0px"
	 viewBox="0 0 512 512" style="enable-background:new 0 0 512 512;" xml:space="preserve">
<style type="text/css">
	.st0{fill:#ffffff;}
</style>
<path class="st0" d="M36.4,220.9l144.9,87l295.1-157.6L339.8,62.1C339.8,62.1,36.4,220.9,36.4,220.9z M376.3,146.2l-39.1-25.3
	l-196.9,103l42.6,25.6C182.8,249.5,376.3,146.2,376.3,146.2z M344.3,97l62.1,40.1l0,0c1.7,1.1,3.1,2.6,4.1,4.4
	c3.1,5.8,0.9,13.1-4.9,16.2l-217,115.8c-3.7,2.1-8.3,2.3-12.2,0l-66.6-40c-1.8-1.1-3.4-2.7-4.5-4.7c-3-5.9-0.8-13.1,5.1-16.1
	L331.5,96.8C335.3,94.5,340.3,94.4,344.3,97L344.3,97z M505.8,140.8c3.7,2,6.2,6,6.2,10.5v142h0c0,4.3-2.3,8.4-6.3,10.5L187.6,473.7
	l-0.1,0.1l0,0l-0.1,0c-4.1,2.6-9.3,2.4-13.3-0.4l0,0L5.9,372.5c-3.7-2.2-5.8-6.2-5.8-10.3h0v-142c0-5,3.1-9.3,7.5-11.1l326.8-171
	c3.8-2.3,8.7-2.4,12.7,0.1L505.8,140.8L505.8,140.8z M193,328.8v114.9l295-157.5V171.3L193,328.8z M169,328.4l-145-87v114.1l145,87
	V328.4L169,328.4z"/>
</svg>
