<?xml version="1.0" encoding="utf-8"?>
<!-- Generator: Adobe Illustrator 28.0.0, SVG Export Plug-In . SVG Version: 6.00 Build 0)  -->
<svg version="1.1" id="Capa_1" xmlns="http://www.w3.org/2000/svg" xmlns:xlink="http://www.w3.org/1999/xlink" x="0px" y="0px"
	 viewBox="0 0 644 644" style="enable-background:new 0 0 644 644;" xml:space="preserve">
<style type="text/css">
	.st0{fill:#FFFFFF;}
</style>
<path class="st0" d="M450,457H194c-17.7,0-32-14.3-32-32s14.3-32,32-32h256C491.9,393.2,491.8,456.9,450,457z M354,493h-64
	c-41.8,0.2-41.9,63.8,0,64c0,0,64,0,64,0C395.8,556.8,395.9,493.2,354,493z M514,293H354V119c0-17.7-14.3-32-32-32s-32,14.3-32,32
	v174c0,0-160,0-160,0c-42,0.7-42.2,63.3,0,64c0,0,384,0,384,0C555.9,356.4,556.2,293.7,514,293z M583.6,322
	c0-144.5-117.1-261.6-261.6-261.6S60.4,177.5,60.4,322S177.5,583.6,322,583.6S583.6,466.5,583.6,322z M0,322C0,144.2,144.2,0,322,0
	s322,144.2,322,322S499.8,644,322,644S0,499.8,0,322z"/>
</svg>
