<?xml version="1.0" encoding="utf-8"?>
<!-- Generator: Adobe Illustrator 28.0.0, SVG Export Plug-In . SVG Version: 6.00 Build 0)  -->
<svg version="1.1" id="Capa_1" xmlns="http://www.w3.org/2000/svg" xmlns:xlink="http://www.w3.org/1999/xlink" x="0px" y="0px"
	 viewBox="0 0 576 512" style="enable-background:new 0 0 576 512;" xml:space="preserve">
<style type="text/css">
	.st0{fill:#FFFFFF;}
</style>
<path class="st0" d="M567.5,229.7l-264-224c-9-7.6-22.1-7.6-31.1,0l-264,224c-10.1,8.6-11.3,23.7-2.8,33.8
	c8.5,10.1,23.7,11.3,33.8,2.8L64,245.5V432c0,44.2,35.8,80,80,80h288c44.2,0,80-35.8,80-80V245.5l24.5,20.8
	c10.1,8.6,25.3,7.3,33.8-2.8S577.6,238.2,567.5,229.7z M464,432c0,17.7-14.3,32-32,32H310.5c0-0.2,0-0.3,0-0.5v-33.8
	c18.7-5,35.5-16.2,48.2-32.1c14.5-18.3,22.5-41.6,22.5-65.7v-27.1c9.6-2.7,16.6-11.9,16.6-22.8c0-13-10.1-23.6-22.5-23.6h-19.1
	v-58.1c0-13-10.1-23.6-22.5-23.6s-22.5,10.6-22.5,23.6v58.1h-46.6v-58.1c0-13-10.1-23.6-22.5-23.6c-12.4,0-22.5,10.6-22.5,23.6v58.1
	h-19.1c-12.4,0-22.5,10.6-22.5,23.6c0,10.9,7.1,20.1,16.6,22.8v27.1c0,24.1,8,47.5,22.5,65.7c12.7,15.9,29.5,27.1,48.2,32.1v33.8
	c0,0.2,0,0.3,0,0.5H144c-17.7,0-32-14.3-32-32V204.8L288,55.5l176,149.3V432z M288,385.4c-26.6,0-48.2-24-48.2-53.6v-26.3h96.5v26.3
	C336.2,361.4,314.6,385.4,288,385.4z"/>
</svg>
