<?xml version="1.0" encoding="utf-8"?>
<!-- Generator: Adobe Illustrator 28.0.0, SVG Export Plug-In . SVG Version: 6.00 Build 0)  -->
<svg version="1.1" id="Capa_1" xmlns="http://www.w3.org/2000/svg" xmlns:xlink="http://www.w3.org/1999/xlink" x="0px" y="0px"
	 viewBox="0 0 693 439" style="enable-background:new 0 0 693 439;" xml:space="preserve">
<style type="text/css">
	.st0{fill:#FFFFFF;}
</style>
<path class="st0" d="M24.8,284.1C11,284.1,0,295.2,0,308.9c0,13.7,11.1,24.8,24.8,24.8c13.8,0,24.8-11.1,24.8-24.8
	C49.4,295.2,38.4,284.1,24.8,284.1z M24.8,318.4c-5.1,0-9.3-4.2-9.3-9.3c0-5.1,4.2-9.3,9.3-9.3s9.3,4.2,9.3,9.3
	C34.1,314.2,29.9,318.4,24.8,318.4z"/>
<path class="st0" d="M620.7,390.8c-13.4,0-24.1,10.8-24.1,24.1c0,13.4,10.8,24.1,24.1,24.1c13.4,0,24.1-10.8,24.1-24.1
	C644.9,401.6,634.1,390.8,620.7,390.8z M620.7,423.7c-4.9,0-8.8-3.9-8.8-8.8c0-4.9,3.9-8.8,8.8-8.8c4.9,0,8.8,3.9,8.8,8.8
	C629.3,419.6,625.5,423.6,620.7,423.7z"/>
<path class="st0" d="M670.2,365.8c-11.4,0-20.4,9.2-20.4,20.4c0,11.2,9.2,20.4,20.4,20.4s20.4-9.2,20.4-20.4
	C690.7,375,681.6,365.8,670.2,365.8z M670.2,391.5c-2.8,0-5.1-2.3-5.1-5.1c0-2.8,2.3-5.1,5.1-5.1s5.1,2.3,5.1,5.1
	S673.1,391.5,670.2,391.5z"/>
<path class="st0" d="M692.5,303.5L692.5,303.5c-2.6-15.6-14.5-27.9-29.9-31c-4.9-13.4-17.9-22.9-32.6-23c-3,0-5.8,0.4-8.7,1.1
	c-3.9-11-11.6-20.3-22.1-26.3c-3.2-18-19.1-31.4-37.6-31.4c-1.2,0-2.4,0-3.8,0.1c-3.9-10.3-12-18.5-22.2-22.6
	c-0.8-19.4-14.9-36-33.8-39.8c-3.5-5.8-8.1-10.7-13.8-14.3c-2.2-12.2-10.7-22.2-22.1-26.3c0.3-13.5-7.4-26.1-19.8-31.8
	c-0.8-21.7-17.1-39.4-38.4-42C401,6.5,389.6,0.3,377.3,0h-3.5c-12.6,0-24.2,6.2-31.3,16.5c-21.3,2.6-37.6,20.3-38.4,42
	c-11.9,5.6-19.9,17.6-19.9,31c0,0.3,0,0.7,0,0.9c-14.9,5.6-24.4,21.1-21.8,37.4c0.1,0.8,0.3,1.8,0.5,2.6
	c-21.9-3-42.6,11.6-47.1,33.7c-0.4,2.2-0.7,4.3-0.8,6.5c-10.2,4.1-18.3,12.2-22.2,22.5c-1.1-0.1-2.3-0.3-3.4-0.3h-0.3
	c-18.5,0-34.4,13.5-37.6,31.3c-10.3,6-18,15.2-21.9,26.3c-2.8-0.8-5.8-1.1-8.8-1.1c-14.8,0-27.8,9.3-32.6,23
	C68.4,276.2,55,295,58.2,315.1c2.6,16.1,15.2,28.6,31.1,31.1l0.5,0.1h0.5c1.4,0,2.7,0,4.1-0.1c8,18.3,26,30.1,46.3,30.1
	c9.5,0,18.7-2.7,26.7-7.7c1.9,2.4,4.1,4.7,6.4,6.6c8.1,13.8,22.9,22.5,39,22.6c4.7,0,9.6-0.8,14.3-2.3c8.1,13,22.5,21.3,38.2,21.4
	c3.7,0,7.3-0.4,11.1-1.4c12.7,6.1,27.2,6.2,40.2,0.5c9.3,5.6,21,4.9,29.6-1.5c11.2,8.3,27.2,8.1,38.2-1.2c0.7-0.5,1.4-1.1,1.9-1.8
	c5,1.4,10.3,1.6,15.3,0.9c3.8,3.9,8.8,6.6,14.3,7.6c6.5,1.2,13,0,18.5-3.4c6.1,2.6,12.5,3.9,18.8,3.9c7.3,0,14.5-1.6,21.1-4.9
	c3.7,0.9,7.3,1.4,11.1,1.4c15.7-0.1,30.1-8.4,38.2-21.4c4.6,1.5,9.5,2.3,14.3,2.3c16.1-0.1,30.9-8.8,39-22.6c2.4-2,4.6-4.3,6.5-6.8
	c8,4.9,17.2,7.4,26.5,7.4c20.3,0,38.3-11.8,46.4-29.9c1.4,0.1,2.7,0.3,4.1,0.3h0.5l0.5-0.1C681.9,343.3,695.8,323.9,692.5,303.5z
	 M233.5,331.4c-4.2,0-7.7-3.4-7.7-7.7c0-0.5,0-0.9,0-1.5c-0.4-3.8-3.8-6.5-7.6-6.1c-3.8,0.4-6.5,3.8-6.1,7.6c0,4.2-3.4,7.7-7.7,7.7
	c-4.2,0-7.7-3.4-7.7-7.7c0-5.7,2.2-11.2,6.1-15.4c-0.4-3.2-3.1-5.7-6.4-5.8c-3.8-0.1-7,2.7-7.2,6.5c0,4.2-3.5,7.7-7.7,7.7
	s-7.7-3.4-7.7-7.7c-0.1-9.5,5.8-17.9,14.8-21c11.6-4.2,24.2,1.8,28.4,13.4h2c0.1,0,0.1,0-0.1-0.1c12.5,0.1,22.2,10.3,22.1,22.5
	C241.2,327.9,237.8,331.4,233.5,331.4z M298.5,326.1c-4.2,0-7.7-3.4-7.7-7.7c0-0.5,0-0.9,0-1.5c-0.4-3.8-3.8-6.5-7.6-6.1
	c-3.8,0.4-6.5,3.8-6.1,7.6c0,4.2-3.5,7.7-7.7,7.7s-7.7-3.4-7.7-7.7c0-12.3,10-22.2,22.2-22.2s22.2,10,22.1,22.2
	C306.2,322.6,302.7,326.1,298.5,326.1z M339.9,241.6c-4.2,0-7.7-3.4-7.7-7.7c-0.3-3.2-2.8-5.7-6.1-6.1c-3.8-0.4-7.2,2.3-7.6,6.1
	c0,4.2-3.4,7.7-7.7,7.7c-4.2,0-7.7-3.4-7.7-7.7c0-12.3,10-22.2,22.2-22.2c12.3,0.1,22.2,10.2,22.1,22.2
	C347.6,238.2,344.1,241.6,339.9,241.6z M437,175.7c-4.2,0-7.7-3.4-7.7-7.7c-0.3-3.2-2.8-5.7-6.1-6.1c-3.8-0.4-7.2,2.3-7.6,6.1
	c0,4.2-3.4,7.7-7.7,7.7c-4.2,0-7.7-3.4-7.7-7.7c0-12.3,10-22.2,22.2-22.2s22.2,10,22.1,22.2C444.7,172.2,441.3,175.7,437,175.7z
	 M559.1,296.2c-4.2,0-7.7-3.4-7.7-7.7c-0.3-3.2-2.8-5.7-6.1-6.1c-3.8-0.4-7.2,2.3-7.6,6.1c0,1.4-0.3,2.6-0.9,3.7c2,3.5,3,7.4,3,11.4
	c0,4.2-3.4,7.7-7.7,7.7c-4.2,0-7.7-3.4-7.7-7.7c0-0.5,0-0.9,0-1.5c-0.4-3.8-3.8-6.5-7.6-6.1c-3.8,0.4-6.5,3.8-6.1,7.6
	c0,4.2-3.4,7.7-7.7,7.7c-4.2,0-7.7-3.4-7.7-7.7c0-12.3,10-22.2,22.2-22.2c2,0,4.1,0.4,6.1,0.9c3-9.2,11.5-15.4,21-15.4
	c12.2,0.1,21.9,9.9,21.9,21.7C566.8,292.7,563.4,296.2,559.1,296.2z"/>
</svg>
