<?xml version="1.0" encoding="utf-8"?>
<!-- Generator: Adobe Illustrator 28.0.0, SVG Export Plug-In . SVG Version: 6.00 Build 0)  -->
<svg version="1.1" id="Capa_2_00000128466425815861397270000017125995436269087933_"
	 xmlns="http://www.w3.org/2000/svg" xmlns:xlink="http://www.w3.org/1999/xlink" x="0px" y="0px" viewBox="0 0 30 23.5"
	 style="enable-background:new 0 0 30 23.5;" xml:space="preserve">
<style type="text/css">
	.st0{fill:#D1D1D1;}
	.st1{fill:url(#SVGID_1_);}
	.st2{fill:url(#SVGID_00000000902926357319621960000005387708885265442183_);}
	.st3{fill:url(#SVGID_00000176020068214984910500000011893777755915263372_);}
</style>
<g>
	<polygon class="st0" points="5.6,23 0,21.2 14.9,15.9 30,20.8 24.4,22.8 24.1,21.9 27.2,20.8 14.9,16.9 2.8,21.1 5.9,22.1 	"/>
	<g>
		<g>
			
				<linearGradient id="SVGID_1_" gradientUnits="userSpaceOnUse" x1="8.5521" y1="1.1969" x2="8.5521" y2="17.8426" gradientTransform="matrix(1 0 0 -1 0 24.7078)">
				<stop  offset="0.16" style="stop-color:#00BBFA"/>
				<stop  offset="0.34" style="stop-color:#0BCAE5"/>
				<stop  offset="0.71" style="stop-color:#28F3B1"/>
				<stop  offset="0.81" style="stop-color:#31FFA2"/>
			</linearGradient>
			<polygon class="st1" points="9.9,6.9 10,22.5 7.2,23.5 7.1,7.8 			"/>
			<polygon class="st0" points="7.2,23.5 4.3,22.6 4.3,6.9 7.1,7.8 			"/>
			<polygon class="st0" points="7.1,7 4.3,6.1 7.1,5.1 9.9,6 			"/>
		</g>
		<g>
			
				<linearGradient id="SVGID_00000089551338194441353890000017002413239117821356_" gradientUnits="userSpaceOnUse" x1="24.2868" y1="1.1969" x2="24.2868" y2="17.8426" gradientTransform="matrix(1 0 0 -1 0 24.7078)">
				<stop  offset="0.16" style="stop-color:#00BBFA"/>
				<stop  offset="0.34" style="stop-color:#0BCAE5"/>
				<stop  offset="0.71" style="stop-color:#28F3B1"/>
				<stop  offset="0.81" style="stop-color:#31FFA2"/>
			</linearGradient>
			<polygon style="fill:url(#SVGID_00000089551338194441353890000017002413239117821356_);" points="25.7,6.9 25.7,22.5 22.9,23.5 
				22.9,7.8 			"/>
			<polygon class="st0" points="22.9,23.5 20.1,22.6 20,6.9 22.9,7.8 			"/>
			<polygon class="st0" points="22.9,7 20,6.1 22.8,5.1 25.7,6 			"/>
		</g>
		<g>
			
				<linearGradient id="SVGID_00000024705861556270299810000004849915988645551271_" gradientUnits="userSpaceOnUse" x1="16.4371" y1="3.7772" x2="16.4371" y2="20.423" gradientTransform="matrix(1 0 0 -1 0 24.7078)">
				<stop  offset="0.16" style="stop-color:#00BBFA"/>
				<stop  offset="0.34" style="stop-color:#0BCAE5"/>
				<stop  offset="0.71" style="stop-color:#28F3B1"/>
				<stop  offset="0.81" style="stop-color:#31FFA2"/>
			</linearGradient>
			<polygon style="fill:url(#SVGID_00000024705861556270299810000004849915988645551271_);" points="17.8,4.3 17.8,20 15.1,20.9 
				15,5.3 			"/>
			<polygon class="st0" points="15.1,20.9 12.2,20 12.2,4.3 15,5.3 			"/>
			<polygon class="st0" points="15,4.4 12.2,3.5 15,2.5 17.8,3.4 			"/>
		</g>
	</g>
	<polygon class="st0" points="27.7,17.8 26.8,17.8 26.8,5.4 15.1,1 3.2,5.4 3.2,17.8 2.3,17.8 2.3,4.8 15.1,0 27.7,4.8 	"/>
</g>
</svg>
