<?xml version="1.0" encoding="utf-8"?>
<!-- Generator: Adobe Illustrator 28.0.0, SVG Export Plug-In . SVG Version: 6.00 Build 0)  -->
<svg version="1.1" id="Capa_1" xmlns="http://www.w3.org/2000/svg" xmlns:xlink="http://www.w3.org/1999/xlink" x="0px" y="0px"
	 viewBox="0 0 576 512" style="enable-background:new 0 0 576 512;" xml:space="preserve">
<style type="text/css">
	.st0{fill:#FFFFFF;}
</style>
<path class="st0" d="M567.5,229.7l-264-224c-9-7.6-22.1-7.6-31.1,0l-264,224c-10.1,8.6-11.3,23.7-2.8,33.8
	c8.5,10.1,23.7,11.3,33.8,2.8L64,245.5V432c0,44.2,35.8,80,80,80h288c44.2,0,80-35.8,80-80V245.5l24.5,20.8
	c10.1,8.6,25.3,7.3,33.8-2.8S577.6,238.2,567.5,229.7z M112,320.5h60c6.4,0,12.3-2.5,16.8-7l11.2-11.3h49.1l11.3,11.3
	c4.5,4.5,10.4,6.9,16.8,6.9H300c27.3,0,49.5,22.2,49.5,49.5v3.7h-16.9c-2.7-20.6-20.3-36.6-41.7-36.6h-18.5c-8.1,0-15.6,4.1-20,11
	c-6.6,10.3-17.9,16.5-30.1,16.5c-12.2,0-23.5-6.2-30.2-16.5c-4.4-6.9-11.9-11-20-11H112V320.5z M464,432c0,17.7-14.3,32-32,32H144
	c-17.7,0-32-14.3-32-32v-47.4h48.6c15.8,17.5,38,27.4,61.7,27.4c23.7,0,46-9.9,61.7-27.4h1.8c2.7,20.6,20.3,36.6,41.7,36.6H355
	c23.2,0,42-18.9,42-42V370c0-53.4-43.5-96.9-96.9-96.9H287l-6-6c-7.9-7.9-18.5-12.3-29.7-12.3H246v-4.4l48.8,6.1h0.6
	c15.6,0,28.3-12.7,28.3-28.3s-12.7-28.3-28.3-28.3h-0.6L246,206v-0.7c0-13.1-10.6-23.7-23.7-23.7s-23.7,10.6-23.7,23.7v0.7
	l-48.8-6.1h-0.6c-15.6,0-28.3,12.7-28.3,28.3s12.7,28.3,28.3,28.3h0.6l48.8-6.1v4.4h-0.7c-11.2,0-21.8,4.4-29.7,12.3l-6,6H112v-68.3
	L288,55.5l176,149.3V432z"/>
</svg>
