<?xml version="1.0" encoding="utf-8"?>
<!-- Generator: Adobe Illustrator 28.0.0, SVG Export Plug-In . SVG Version: 6.00 Build 0)  -->
<svg version="1.1" id="Capa_1" xmlns="http://www.w3.org/2000/svg" xmlns:xlink="http://www.w3.org/1999/xlink" x="0px" y="0px"
	 viewBox="0 0 512 384" style="enable-background:new 0 0 512 384;" xml:space="preserve">
<style type="text/css">
	.st0{opacity:0.4;enable-background:new    ;}
	.st1{fill:#FFFFFF;}
</style>
<path class="st0" d="M64,142.5c0,0.5,0,1,0,1.5c0,0.6,0,1.2,0,1.7c0.9,11.3,10.6,28,39.3,44.3c40-18.6,93.7-30,152.6-30
	s112.6,11.4,152.6,30c28.8-16.3,38.4-33,39.3-44.3c0-0.6,0-1.2,0-1.7s0-1,0-1.5c-0.9-12.3-12.2-31.2-47.9-49.1
	c-31-15.5-74.3-26.5-123.8-29c-6.7-0.3-13.4-0.4-20.3-0.4s-13.6,0.1-20.3,0.4c-49.5,2.4-92.8,13.5-123.8,29
	c-35.6,17.8-47,36.7-47.9,49.1H64z"/>
<path class="st1" d="M111.9,93.4C147.1,75.8,198,64,256,64s108.9,11.8,144.1,29.4C437.2,112,448,131.7,448,144s-10.8,32-47.9,50.6
	C364.9,212.2,314,224,256,224s-108.9-11.8-144.1-29.4C74.8,176,64,156.3,64,144S74.8,112,111.9,93.4z M83.3,36.2
	C39.4,58.2,0,94.4,0,144v96c0,49.6,39.4,85.8,83.3,107.8c45.8,22.9,107,36.2,172.7,36.2s126.9-13.3,172.7-36.2
	c43.9-22,83.3-58.2,83.3-107.8v-96c0-49.6-39.4-85.8-83.3-107.8C382.9,13.3,321.7,0,256,0S129.1,13.3,83.3,36.2z"/>
</svg>
