<?xml version="1.0" encoding="utf-8"?>
<!-- Generator: Adobe Illustrator 28.0.0, SVG Export Plug-In . SVG Version: 6.00 Build 0)  -->
<svg version="1.1" id="Capa_1" xmlns="http://www.w3.org/2000/svg" xmlns:xlink="http://www.w3.org/1999/xlink" x="0px" y="0px"
	 viewBox="0 0 640 256" style="enable-background:new 0 0 640 256;" xml:space="preserve">
<style type="text/css">
	.st0{fill:#FFFFFF;}
</style>
<path class="st0" d="M32,192c0,17.7,14.3,32,32,32h512c17.7,0,32-14.3,32-32V64c0-17.7-14.3-32-32-32h-48v64c0,8.8-7.2,16-16,16
	s-16-7.2-16-16V32h-64v64c0,8.8-7.2,16-16,16s-16-7.2-16-16V32h-64v64c0,8.8-7.2,16-16,16s-16-7.2-16-16V32h-64v64
	c0,8.8-7.2,16-16,16s-16-7.2-16-16V32h-64v64c0,8.8-7.2,16-16,16s-16-7.2-16-16V32H64c-17.7,0-32,14.3-32,32V192z M64,256
	c-35.3,0-64-28.7-64-64V64C0,28.7,28.7,0,64,0h512c35.3,0,64,28.7,64,64v128c0,35.3-28.7,64-64,64H64z"/>
</svg>
