<?xml version="1.0" encoding="utf-8"?>
<!-- Generator: Adobe Illustrator 28.0.0, SVG Export Plug-In . SVG Version: 6.00 Build 0)  -->
<svg version="1.1" id="Capa_1" xmlns="http://www.w3.org/2000/svg" xmlns:xlink="http://www.w3.org/1999/xlink" x="0px" y="0px"
	 viewBox="0 0 512 512" style="enable-background:new 0 0 512 512;" xml:space="preserve">
<style type="text/css">
	.st0{fill:#FFFFFF;}
</style>
<path class="st0" d="M157.8,365.2c-6.1-6.1-11.9-11.9-18.1-18.1c-10.1,9.7-20.1,20.2-30.1,30.3c-41,39.4-99.4-18.3-60.1-59.7
	c90.9-89.1,182.9-177,273.2-266.5c19.5-19.9,50-19.8,67.6,3.9c16.8-21,45.8-25.9,65.8-6c8.7,8.9,12.8,19.6,12.1,32.1
	c-0.7,12.4-6.6,22.4-15.7,30.8c23.2,12.3,30.3,43.1,13.7,63.5C370,273,272.7,369.8,175.7,466.5c-43.4,31.6-92.9-26.7-54.4-64.8
	C133.6,389.8,146.2,377.4,157.8,365.2z M171.2,219.2c-9.6,9.3-18.5,17.9-27.2,26.6c-0.9,0.9-1,2.7-1,4c-0.1,11.3,0,22.8-0.1,34.2
	c-5.1,0-9.4,0-14.3,0c0-7.6,0-15,0-23.3c-15.6,15.3-30.5,29.8-46,44.9c11,1.4,19.5,5.4,26.7,12.5c7.2,7.2,11,16.1,12.5,27.1
	c4.4-4.5,8.2-8.1,11.7-12.1c1.3-1.5,2.3-3.8,2.3-5.7c0.1-12.4,4.6-22.9,13.5-31.6c6.7-6.4,13.3-12.9,19.8-19.5
	c1.1-1.1,2.1-3,2.1-4.5C171.3,254.7,171.2,237.6,171.2,219.2z M206.6,326.6c-0.1-15.6-12.9-28.2-28.5-28.1c-37.4,2-37,55,0.3,56.6
	C193.9,355,206.7,342.2,206.6,326.6z M79.3,319.6c-15.6,0-28.4,12.7-28.4,28.4c0,15.4,12.6,28.1,28,28.3
	c15.6,0.1,28.5-12.5,28.5-28.1C107.6,332.5,94.9,319.7,79.3,319.6z M150,461.2c15.6,0,28.3-12.9,28.3-28.5
	c-1.8-37.4-54.9-37.3-56.6,0.1C121.6,448.4,134.4,461.2,150,461.2z M341,203.4c9.1-9.1,17.5-17.2,25.5-25.7c1.5-1.5,2.6-4.3,2.6-6.4
	c0.2-23.4,0.1-46.8,0.1-70.2c0-1.3,0-2.5,0-4.9c-9.6,9.7-18.4,18.4-27.2,27.3c-0.7,0.7-1,2.1-1,3.2C341,151.7,341,177,341,203.4z
	 M298.6,245.9c9.5-9.5,18.3-18.1,26.7-26.9c1-1,1.5-3.1,1.5-4.7c-0.3-25.2,0.8-50.2-0.3-75.4c-8.7,8.7-16.6,16.9-24.9,24.9
	c-2.1,2.1-3.1,4.2-3.1,7.3C298.6,196.2,298.6,220.8,298.6,245.9z M256.2,288.4c9.2-9.2,17.6-17.4,25.7-25.9c1.5-1.5,2.4-4,2.4-6.1
	c-0.1-25,0.6-50-0.3-75c-8.7,8.8-16.9,17.1-25.3,25.2c-2.1,2.1-2.7,4.1-2.7,6.9C256.2,238.7,256.1,263,256.2,288.4z M411.8,55
	c-1.5,0.9-2.1,1.2-2.7,1.7c-8.2,8.1-16.5,16-24.4,24.3c-0.9,0.9-1.1,2.9-1.1,4.5c0.3,25.2-0.8,50.2,0.3,75.4
	c8.7-8.8,17.1-17,25-25.4c1.5-1.6,2.7-4.2,2.7-6.4C411.9,104.3,411.8,79.8,411.8,55z M241.9,223.6c-9.5,9.5-18.2,18.1-26.7,26.8
	c-1,1-1.5,3.1-1.5,4.7c0.1,16-0.4,32.2,0.1,48.2c2.6,6.4,5.2,12.9,8,19.6c5.7-5.8,11.8-11.7,17.6-18c1.4-1.5,2.5-4,2.5-6.1
	C242,273.7,241.9,248.9,241.9,223.6z M192.5,430c9.6-9.6,18.3-18.2,26.7-27c1-1.1,1.5-3.1,1.5-4.7c0.1-16.8-0.2-52.5-0.3-53.8
	c-3.6,3.5-6.6,6.9-10.1,9.9c-4.7,3.9-9.6,7.6-14.7,10.9c-2.1,1.4-3.2,2.3-3.1,4.9C192.5,390.5,192.5,409.5,192.5,430z M433,131.6
	c-9.5,9.5-18.2,18.1-26.7,26.8c-1,1.1-1.5,3.1-1.5,4.7c-0.1,16.8-0.1,33.6-0.1,50.3c0,1,0.2,2.1,0.4,4.1
	c5.5-5.6,10.3-10.5,15.1-15.4c4.1-4.2,9.9-7.7,11.9-12.8c2.1-5.1,0.8-11.8,0.8-17.8C433,158.6,433,145.7,433,131.6z M362.2,260.1
	c8.9-8.9,16.9-17.1,25.1-25c2.3-2.2,3.3-4.5,3.3-7.6c-0.2-16-0.1-32.1-0.1-48.2c0-1.4,0-2.7,0-5.3c-9.7,9.7-18.5,18.5-27.2,27.4
	c-0.7,0.7-1,2.1-1,3.2C362.2,222.6,362.2,240.7,362.2,260.1z M319.8,302.7c9.7-9.8,18.6-18.6,27.2-27.6c0.9-0.9,1-2.9,1-4.5
	c0.1-16.6,0.1-33.3,0-49.9c0-1.1-0.2-2.2-0.3-4.1c-9.4,9.4-18.3,18.3-27,27.1c-0.7,0.7-1,2.1-1,3.2
	C319.8,265.1,319.8,283.2,319.8,302.7z M305.6,258.9c-9.5,9.5-18.2,18.1-26.7,26.8c-1,1.1-1.5,3.1-1.5,4.7
	c-0.1,16.8-0.1,33.6-0.1,50.3c0,1,0.2,2.1,0.4,4.1c9.3-9.9,18.1-18.4,27.5-28C305.6,297.1,305.7,279.3,305.6,258.9z M263.2,301.4
	c-9.5,9.5-18.2,18.1-26.7,26.8c-1,1.1-1.5,3.1-1.5,4.7c-0.1,16.8-0.1,33.6-0.1,50.3c0,1,0.2,2.1,0.4,3.9
	c5.4-5.5,27.3-28.5,27.3-28.5S263.2,315.5,263.2,301.4z M213.6,177.8c-9.5,9.3-18.2,17.6-26.7,26.1c-1,1-1.5,3.1-1.5,4.7
	c-0.1,15.8-0.1,31.6-0.1,47.3c0,1,0.3,2.1,0.4,3.7c9.2-9.2,17.8-17.8,26.4-26.5c0.8-0.8,1.4-2,1.4-3
	C213.7,213.1,213.6,196.1,213.6,177.8z M227.8,217.6c9.5-9.5,18.3-18.2,26.7-26.9c1-1,1.5-3.1,1.5-4.7c0.1-15.2,0.1-30.4,0.1-45.4
	c0-1.1-0.2-2.1-0.3-3.9c-9.3,9-18,17.5-26.6,26.1c-0.9,0.9-1.3,2.9-1.3,4.4C227.7,184.4,227.9,199.7,227.8,217.6z M298.6,96.1
	c-0.7-0.5-1.4-0.9-2.1-1.5c-8.2,8.8-16.5,17.7-24.6,26.6c-1,1.1-1.5,3.1-1.5,4.7c-0.1,15-0.1,30-0.1,45.1c0,1.1,0.2,2.1,0.3,3.9
	c7.1-7.2,13.5-14.2,20.6-20.3c5.9-5.1,7.9-10.7,7.5-18.3C298.2,122.8,298.6,109.4,298.6,96.1z M341,54.9c-1.6,1.1-2.7,1.6-3.5,2.4
	c-7.9,7.5-15.8,15.1-23.4,22.7c-0.9,0.9-1.3,2.9-1.3,4.4c-0.1,14.8-0.1,29.8,0,44.6c0,0.9,0.3,1.9,0.4,3.3
	c9.1-9.1,17.7-17.7,26.2-26.3c0.9-0.9,1.5-2.2,1.5-3.4C341,86.9,341,71.3,341,54.9z M426.2,117c7.4-7,15.4-13.5,22-21.3
	c7.6-9,8.1-19.7,2.6-30.2c-5.1-9.6-13.5-14.2-24.6-14.7C426.2,73.1,426.2,95.2,426.2,117z M379.9,65.1c-5.6-9.1-13.5-13.8-24.3-14.3
	c0,13,0,25.7,0,38.8C363.8,81.3,371.6,73.4,379.9,65.1z M447.4,125.9c0,16.1,0,32.2,0,48.4C465.8,160.6,465.8,134.3,447.4,125.9z
	 M154.1,389.3c8.1,3.4,16.1,6.9,23.9,10.2c0-9.7,0-19.9,0-30.8c-1.8,0.5-3.7,0.4-4.6,1.4C166.7,376.6,160.1,383.3,154.1,389.3z
	 M182.8,284c5.1,1.5,10.8,3.3,16.5,5.1c0-7.3,0-14.7,0-21.5C193.7,273.1,188.1,278.7,182.8,284z"/>
</svg>
