<?xml version="1.0" encoding="utf-8"?>
<svg version="1.1" id="Capa_1" xmlns="http://www.w3.org/2000/svg" xmlns:xlink="http://www.w3.org/1999/xlink" x="0px" y="0px"
	 viewBox="0 0 512 512" style="enable-background:new 0 0 512 512;" xml:space="preserve">
<style type="text/css">
	.st0{fill:#ffffff;}
</style>
<path class="st0" d="M491.5,460.4h-36.9c14.8-9,24.7-25.2,24.7-43.9V333c0-8.3-6.8-15-15-15h-75.1c-8.3,0-15,6.7-15,15v29.8h-23.4
	c-8.3,0-15,6.7-15,15v75.1c0,2.7,0.8,5.3,2.1,7.5h-81c1.3-2.2,2.1-4.8,2.1-7.5v-75.1c0-8.3-6.8-15-15-15h-23.4V333
	c0-8.3-6.8-15-15-15h-75.1c-8.3,0-15,6.7-15,15v83.6c0,18.6,9.9,34.8,24.7,43.9H7.5c-4.1,0-7.5,3.4-7.5,7.5s3.4,7.5,7.5,7.5h484
	c4.1,0,7.5-3.4,7.5-7.5S495.6,460.4,491.5,460.4z M24,57.8h37.6v60.1H24V57.8z M137.6,201.5h60.1v101.4h-60.1V201.5z M91.6,141.7
	h23.4v29.8c0,8.3,6.8,15,15,15h75.1c8.3,0,15-6.7,15-15V87.8c0-28.3-23-51.3-51.3-51.3H91.6c-8.3,0-15,6.7-15,15v75.1
	C76.6,134.9,83.4,141.7,91.6,141.7z M273.8,385.8h46.8v60.1h-46.8V385.8z M439.8,117.9c-24.9,0-45.1,20.2-45.1,45.1v140h60.1V178
	H512v-60.1C512,117.9,439.8,117.9,439.8,117.9z"/>
</svg>
